<mxfile host="65bd71144e" scale="20" border="0">
    <diagram id="fUU3eTQK2Krqb0j5PKWN" name="Page-1">
        <mxGraphModel dx="286" dy="760" grid="1" gridSize="10" guides="1" tooltips="1" connect="1" arrows="1" fold="1" page="1" pageScale="1" pageWidth="827" pageHeight="1169" math="0" shadow="0">
            <root>
                <mxCell id="0"/>
                <mxCell id="1" parent="0"/>
                <mxCell id="xde6bj1MVYbyTkNECEby-103" value="Explainable AI" style="rounded=0;fontSize=12;html=1;strokeColor=default;strokeWidth=2;fillColor=none;fontStyle=1" parent="1" vertex="1">
                    <mxGeometry x="1040" y="538" width="140" height="35" as="geometry"/>
                </mxCell>
                <mxCell id="xde6bj1MVYbyTkNECEby-104" value="" style="rounded=0;orthogonalLoop=1;jettySize=auto;exitX=1;exitY=0.5;exitDx=0;exitDy=0;entryX=0;entryY=0.5;entryDx=0;entryDy=0;endArrow=none;endFill=0;fontSize=10;html=1;edgeStyle=orthogonalEdgeStyle;strokeColor=default;strokeWidth=2;fontStyle=1" parent="1" source="xde6bj1MVYbyTkNECEby-106" target="xde6bj1MVYbyTkNECEby-111" edge="1">
                    <mxGeometry relative="1" as="geometry"/>
                </mxCell>
                <mxCell id="xde6bj1MVYbyTkNECEby-105" value="" style="rounded=0;orthogonalLoop=1;jettySize=auto;exitX=1;exitY=0.5;exitDx=0;exitDy=0;entryX=0;entryY=0.5;entryDx=0;entryDy=0;endArrow=none;endFill=0;fontSize=10;html=1;edgeStyle=orthogonalEdgeStyle;fontStyle=1;strokeColor=default;strokeWidth=2;" parent="1" source="xde6bj1MVYbyTkNECEby-106" target="xde6bj1MVYbyTkNECEby-116" edge="1">
                    <mxGeometry relative="1" as="geometry"/>
                </mxCell>
                <mxCell id="xde6bj1MVYbyTkNECEby-106" value="Post-Hoc&lt;br&gt;Explanation" style="rounded=0;fontSize=12;html=1;strokeColor=default;strokeWidth=2;fillColor=none;fontStyle=1" parent="1" vertex="1">
                    <mxGeometry x="1200" y="420" width="140" height="35" as="geometry"/>
                </mxCell>
                <mxCell id="xde6bj1MVYbyTkNECEby-107" value="" style="rounded=0;orthogonalLoop=1;jettySize=auto;exitX=1;exitY=0.5;exitDx=0;exitDy=0;entryX=0;entryY=0.5;entryDx=0;entryDy=0;endArrow=none;endFill=0;fontSize=10;html=1;edgeStyle=orthogonalEdgeStyle;strokeColor=default;strokeWidth=2;fontStyle=1" parent="1" source="xde6bj1MVYbyTkNECEby-111" target="xde6bj1MVYbyTkNECEby-135" edge="1">
                    <mxGeometry relative="1" as="geometry"/>
                </mxCell>
                <mxCell id="xde6bj1MVYbyTkNECEby-108" value="" style="rounded=0;orthogonalLoop=1;jettySize=auto;exitX=1;exitY=0.5;exitDx=0;exitDy=0;entryX=0;entryY=0.5;entryDx=0;entryDy=0;endArrow=none;endFill=0;fontSize=10;html=1;edgeStyle=orthogonalEdgeStyle;strokeColor=default;strokeWidth=2;fontStyle=1" parent="1" source="xde6bj1MVYbyTkNECEby-111" target="xde6bj1MVYbyTkNECEby-136" edge="1">
                    <mxGeometry relative="1" as="geometry"/>
                </mxCell>
                <mxCell id="xde6bj1MVYbyTkNECEby-109" value="" style="rounded=0;orthogonalLoop=1;jettySize=auto;exitX=1;exitY=0.5;exitDx=0;exitDy=0;entryX=0;entryY=0.5;entryDx=0;entryDy=0;endArrow=none;endFill=0;fontSize=10;html=1;edgeStyle=orthogonalEdgeStyle;strokeColor=default;strokeWidth=2;fontStyle=1" parent="1" source="xde6bj1MVYbyTkNECEby-111" target="xde6bj1MVYbyTkNECEby-137" edge="1">
                    <mxGeometry relative="1" as="geometry"/>
                </mxCell>
                <mxCell id="xde6bj1MVYbyTkNECEby-110" value="" style="rounded=0;orthogonalLoop=1;jettySize=auto;exitX=1;exitY=0.5;exitDx=0;exitDy=0;entryX=0;entryY=0.5;entryDx=0;entryDy=0;endArrow=none;endFill=0;fontSize=10;html=1;edgeStyle=orthogonalEdgeStyle;strokeColor=default;strokeWidth=2;fontStyle=1" parent="1" source="xde6bj1MVYbyTkNECEby-111" target="xde6bj1MVYbyTkNECEby-138" edge="1">
                    <mxGeometry relative="1" as="geometry"/>
                </mxCell>
                <mxCell id="xde6bj1MVYbyTkNECEby-111" value="Model-Specific &lt;br&gt;Methods" style="rounded=0;fontSize=12;html=1;strokeColor=default;strokeWidth=2;fillColor=none;fontStyle=1" parent="1" vertex="1">
                    <mxGeometry x="1390" y="320" width="140" height="35" as="geometry"/>
                </mxCell>
                <mxCell id="xde6bj1MVYbyTkNECEby-112" value="Build Interpretable &lt;br&gt;Model" style="rounded=0;fontSize=12;html=1;strokeColor=default;strokeWidth=2;fillColor=none;fontStyle=1" parent="1" vertex="1">
                    <mxGeometry x="1200" y="655.08" width="140" height="35" as="geometry"/>
                </mxCell>
                <mxCell id="xde6bj1MVYbyTkNECEby-113" value="" style="rounded=0;orthogonalLoop=1;jettySize=auto;exitX=1;exitY=0.5;exitDx=0;exitDy=0;entryX=0;entryY=0.5;entryDx=0;entryDy=0;endArrow=none;endFill=0;fontSize=10;html=1;edgeStyle=orthogonalEdgeStyle;strokeColor=default;strokeWidth=2;fontStyle=1" parent="1" source="xde6bj1MVYbyTkNECEby-116" target="xde6bj1MVYbyTkNECEby-119" edge="1">
                    <mxGeometry relative="1" as="geometry"/>
                </mxCell>
                <mxCell id="xde6bj1MVYbyTkNECEby-114" value="" style="rounded=0;orthogonalLoop=1;jettySize=auto;exitX=1;exitY=0.5;exitDx=0;exitDy=0;entryX=0;entryY=0.5;entryDx=0;entryDy=0;endArrow=none;endFill=0;fontSize=10;html=1;edgeStyle=orthogonalEdgeStyle;strokeColor=default;strokeWidth=2;fontStyle=1" parent="1" source="xde6bj1MVYbyTkNECEby-116" target="xde6bj1MVYbyTkNECEby-117" edge="1">
                    <mxGeometry relative="1" as="geometry"/>
                </mxCell>
                <mxCell id="xde6bj1MVYbyTkNECEby-115" value="" style="rounded=0;orthogonalLoop=1;jettySize=auto;exitX=1;exitY=0.5;exitDx=0;exitDy=0;entryX=0;entryY=0.5;entryDx=0;entryDy=0;endArrow=none;endFill=0;fontSize=10;html=1;edgeStyle=orthogonalEdgeStyle;strokeColor=default;strokeWidth=2;fontStyle=1" parent="1" source="xde6bj1MVYbyTkNECEby-116" target="xde6bj1MVYbyTkNECEby-118" edge="1">
                    <mxGeometry relative="1" as="geometry"/>
                </mxCell>
                <mxCell id="xde6bj1MVYbyTkNECEby-116" value="Model-Agnostic &lt;br&gt;Methods" style="rounded=0;fontSize=12;html=1;strokeColor=default;strokeWidth=2;fillColor=none;fontStyle=1" parent="1" vertex="1">
                    <mxGeometry x="1390" y="538" width="140" height="35" as="geometry"/>
                </mxCell>
                <mxCell id="xde6bj1MVYbyTkNECEby-117" value="Explain by &lt;br&gt;Simplification" style="rounded=0;fontSize=12;html=1;strokeColor=default;strokeWidth=2;fillColor=none;fontStyle=1" parent="1" vertex="1">
                    <mxGeometry x="1570" y="665" width="140" height="35" as="geometry"/>
                </mxCell>
                <mxCell id="xde6bj1MVYbyTkNECEby-118" value="Explain by Feature &#10;ImportanceÂ " style="rounded=0;fontSize=12;gradientColor=none;fillColor=#B3B3B3;fontStyle=1;labelBorderColor=none;labelBackgroundColor=none;strokeColor=default;strokeWidth=2;" parent="1" vertex="1">
                    <mxGeometry x="1570" y="430" width="140" height="35" as="geometry"/>
                </mxCell>
                <mxCell id="xde6bj1MVYbyTkNECEby-119" value="Explain by &lt;br&gt;Visualization&amp;nbsp;" style="rounded=0;fontSize=12;html=1;strokeColor=default;strokeWidth=2;fillColor=#B3B3B3;fontStyle=1" parent="1" vertex="1">
                    <mxGeometry x="1571.58" y="538" width="140" height="35" as="geometry"/>
                </mxCell>
                <mxCell id="xde6bj1MVYbyTkNECEby-121" value="" style="rounded=0;orthogonalLoop=1;jettySize=auto;exitX=1;exitY=0.5;exitDx=0;exitDy=0;entryX=0;entryY=0.5;entryDx=0;entryDy=0;endArrow=none;endFill=0;fontSize=10;html=1;edgeStyle=orthogonalEdgeStyle;strokeColor=default;strokeWidth=2;fontStyle=1" parent="1" source="xde6bj1MVYbyTkNECEby-122" target="xde6bj1MVYbyTkNECEby-144" edge="1">
                    <mxGeometry relative="1" as="geometry">
                        <Array as="points">
                            <mxPoint x="1935" y="315"/>
                            <mxPoint x="1935" y="333"/>
                        </Array>
                    </mxGeometry>
                </mxCell>
                <mxCell id="xde6bj1MVYbyTkNECEby-122" value="Feature Masking" style="rounded=0;fontSize=12;html=1;gradientColor=none;fillColor=#B3B3B3;fontStyle=1;labelBorderColor=none;labelBackgroundColor=none;strokeColor=default;strokeWidth=2;" parent="1" vertex="1">
                    <mxGeometry x="1770" y="300" width="140" height="35" as="geometry"/>
                </mxCell>
                <mxCell id="xde6bj1MVYbyTkNECEby-123" value="" style="rounded=0;orthogonalLoop=1;jettySize=auto;exitX=1;exitY=0.5;exitDx=0;exitDy=0;entryX=0;entryY=0.5;entryDx=0;entryDy=0;endArrow=none;endFill=0;fontSize=10;html=1;edgeStyle=orthogonalEdgeStyle;strokeColor=default;strokeWidth=2;fontStyle=1" parent="1" source="xde6bj1MVYbyTkNECEby-127" target="xde6bj1MVYbyTkNECEby-169" edge="1">
                    <mxGeometry relative="1" as="geometry"/>
                </mxCell>
                <mxCell id="xde6bj1MVYbyTkNECEby-124" value="" style="rounded=0;orthogonalLoop=1;jettySize=auto;exitX=1;exitY=0.5;exitDx=0;exitDy=0;entryX=0;entryY=0.5;entryDx=0;entryDy=0;endArrow=none;endFill=0;fontSize=10;html=1;edgeStyle=orthogonalEdgeStyle;strokeColor=default;strokeWidth=2;fontStyle=1" parent="1" source="xde6bj1MVYbyTkNECEby-127" target="xde6bj1MVYbyTkNECEby-170" edge="1">
                    <mxGeometry relative="1" as="geometry"/>
                </mxCell>
                <mxCell id="xde6bj1MVYbyTkNECEby-125" value="" style="rounded=0;orthogonalLoop=1;jettySize=auto;exitX=1;exitY=0.5;exitDx=0;exitDy=0;entryX=0;entryY=0.5;entryDx=0;entryDy=0;endArrow=none;endFill=0;fontSize=10;html=1;edgeStyle=orthogonalEdgeStyle;strokeColor=default;strokeWidth=2;fontStyle=1" parent="1" source="xde6bj1MVYbyTkNECEby-127" target="xde6bj1MVYbyTkNECEby-168" edge="1">
                    <mxGeometry relative="1" as="geometry"/>
                </mxCell>
                <mxCell id="Oa-64PtTGQfTfldu2vpg-88" style="rounded=0;orthogonalLoop=1;jettySize=auto;html=1;exitX=1;exitY=0.5;exitDx=0;exitDy=0;entryX=0;entryY=0.5;entryDx=0;entryDy=0;fontSize=12;edgeStyle=orthogonalEdgeStyle;endArrow=none;endFill=0;strokeColor=default;strokeWidth=2;fontStyle=1" parent="1" source="xde6bj1MVYbyTkNECEby-127" target="xde6bj1MVYbyTkNECEby-167" edge="1">
                    <mxGeometry relative="1" as="geometry"/>
                </mxCell>
                <mxCell id="xde6bj1MVYbyTkNECEby-127" value="Feature Mutation" style="rounded=0;fontSize=12;html=1;gradientColor=none;fillColor=#B3B3B3;fontStyle=1;labelBorderColor=none;labelBackgroundColor=none;strokeColor=default;strokeWidth=2;" parent="1" vertex="1">
                    <mxGeometry x="1770" y="429.92" width="140" height="35" as="geometry"/>
                </mxCell>
                <mxCell id="xde6bj1MVYbyTkNECEby-129" value="Rule-based Learner" style="rounded=0;fontSize=12;html=1;strokeColor=default;strokeWidth=2;fillColor=none;fontStyle=1" parent="1" vertex="1">
                    <mxGeometry x="1770" y="645" width="140" height="35" as="geometry"/>
                </mxCell>
                <mxCell id="xde6bj1MVYbyTkNECEby-135" value="Statistical Indexes" style="ellipse;whiteSpace=wrap;html=1;fontSize=10;fillColor=none;strokeColor=default;strokeWidth=2;fontStyle=1" parent="1" vertex="1">
                    <mxGeometry x="1569.22" y="244" width="140" height="35" as="geometry"/>
                </mxCell>
                <mxCell id="xde6bj1MVYbyTkNECEby-136" value="Layer-wise&lt;br style=&quot;font-size: 10px;&quot;&gt;Relevance Propagation " style="ellipse;whiteSpace=wrap;html=1;fontSize=10;fillColor=none;strokeColor=default;strokeWidth=2;fontStyle=1" parent="1" vertex="1">
                    <mxGeometry x="1569.21" y="290" width="140" height="35" as="geometry"/>
                </mxCell>
                <mxCell id="xde6bj1MVYbyTkNECEby-137" value="EfficientNet" style="ellipse;whiteSpace=wrap;html=1;fontSize=10;fillColor=none;strokeColor=default;strokeWidth=2;fontStyle=1" parent="1" vertex="1">
                    <mxGeometry x="1569.2199999999998" y="337" width="140" height="35" as="geometry"/>
                </mxCell>
                <mxCell id="xde6bj1MVYbyTkNECEby-138" value="Axiomatic Attribution" style="ellipse;whiteSpace=wrap;html=1;fontSize=10;fillColor=none;strokeColor=default;strokeWidth=2;fontStyle=1" parent="1" vertex="1">
                    <mxGeometry x="1569.21" y="384" width="140" height="35" as="geometry"/>
                </mxCell>
                <mxCell id="xde6bj1MVYbyTkNECEby-140" value="Decision Set" style="ellipse;whiteSpace=wrap;html=1;fontSize=10;strokeColor=default;strokeWidth=2;fillColor=none;fontStyle=1" parent="1" vertex="1">
                    <mxGeometry x="1960" y="605" width="140" height="35" as="geometry"/>
                </mxCell>
                <mxCell id="xde6bj1MVYbyTkNECEby-141" value="Bayesian Analysis" style="ellipse;whiteSpace=wrap;html=1;fontSize=10;strokeColor=default;strokeWidth=2;fillColor=none;fontStyle=1" parent="1" vertex="1">
                    <mxGeometry x="1960" y="647" width="140" height="35" as="geometry"/>
                </mxCell>
                <mxCell id="xde6bj1MVYbyTkNECEby-144" value="SHAP" style="ellipse;whiteSpace=wrap;html=1;fontSize=10;labelBackgroundColor=none;labelBorderColor=none;fontStyle=1;fillColor=#B3B3B3;strokeColor=default;strokeWidth=2;" parent="1" vertex="1">
                    <mxGeometry x="1960" y="320" width="140" height="35" as="geometry"/>
                </mxCell>
                <mxCell id="xde6bj1MVYbyTkNECEby-145" value="Additional Interpretable &lt;br&gt;Model" style="rounded=0;fontSize=12;html=1;strokeColor=default;strokeWidth=2;fillColor=none;fontStyle=1" parent="1" vertex="1">
                    <mxGeometry x="1770" y="685" width="140" height="35" as="geometry"/>
                </mxCell>
                <mxCell id="xde6bj1MVYbyTkNECEby-146" value="LIME" style="ellipse;whiteSpace=wrap;html=1;fontSize=10;strokeColor=default;strokeWidth=2;fillColor=none;fontStyle=1" parent="1" vertex="1">
                    <mxGeometry x="1960" y="687" width="140" height="35" as="geometry"/>
                </mxCell>
                <mxCell id="xde6bj1MVYbyTkNECEby-147" value="Anchors" style="ellipse;whiteSpace=wrap;html=1;fontSize=10;strokeColor=default;strokeWidth=2;fillColor=none;fontStyle=1" parent="1" vertex="1">
                    <mxGeometry x="1960" y="725" width="140" height="35" as="geometry"/>
                </mxCell>
                <mxCell id="xde6bj1MVYbyTkNECEby-148" value="" style="endArrow=none;fontFamily=Helvetica;fontSize=12;fontColor=default;entryX=0;entryY=0.5;entryDx=0;entryDy=0;exitX=1;exitY=0.5;exitDx=0;exitDy=0;rounded=0;html=1;edgeStyle=orthogonalEdgeStyle;strokeColor=default;strokeWidth=2;fontStyle=1" parent="1" source="xde6bj1MVYbyTkNECEby-103" target="xde6bj1MVYbyTkNECEby-106" edge="1">
                    <mxGeometry width="50" height="50" relative="1" as="geometry">
                        <mxPoint x="1180" y="450" as="sourcePoint"/>
                        <mxPoint x="1230" y="400" as="targetPoint"/>
                    </mxGeometry>
                </mxCell>
                <mxCell id="xde6bj1MVYbyTkNECEby-149" value="" style="endArrow=none;fontFamily=Helvetica;fontSize=12;fontColor=default;exitX=1;exitY=0.5;exitDx=0;exitDy=0;entryX=0;entryY=0.5;entryDx=0;entryDy=0;rounded=0;html=1;edgeStyle=orthogonalEdgeStyle;strokeColor=default;strokeWidth=2;fontStyle=1" parent="1" source="xde6bj1MVYbyTkNECEby-103" target="xde6bj1MVYbyTkNECEby-112" edge="1">
                    <mxGeometry width="50" height="50" relative="1" as="geometry">
                        <mxPoint x="1200" y="640" as="sourcePoint"/>
                        <mxPoint x="1250" y="590" as="targetPoint"/>
                    </mxGeometry>
                </mxCell>
                <mxCell id="xde6bj1MVYbyTkNECEby-150" value="" style="endArrow=none;fontFamily=Helvetica;fontSize=10;fontColor=default;entryX=0;entryY=0.5;entryDx=0;entryDy=0;exitX=1;exitY=0.5;exitDx=0;exitDy=0;rounded=0;html=1;edgeStyle=orthogonalEdgeStyle;strokeColor=default;strokeWidth=2;fontStyle=1" parent="1" source="xde6bj1MVYbyTkNECEby-112" target="105" edge="1">
                    <mxGeometry width="50" height="50" relative="1" as="geometry">
                        <mxPoint x="1320" y="650" as="sourcePoint"/>
                        <mxPoint x="1400" y="605" as="targetPoint"/>
                        <Array as="points">
                            <mxPoint x="1340" y="665"/>
                            <mxPoint x="1380" y="665"/>
                            <mxPoint x="1380" y="608"/>
                            <mxPoint x="1402" y="608"/>
                        </Array>
                    </mxGeometry>
                </mxCell>
                <mxCell id="xde6bj1MVYbyTkNECEby-152" value="" style="endArrow=none;fontFamily=Helvetica;fontSize=10;fontColor=default;exitX=1;exitY=0.5;exitDx=0;exitDy=0;rounded=0;html=1;edgeStyle=orthogonalEdgeStyle;strokeColor=default;strokeWidth=2;fontStyle=1;entryX=0;entryY=0.5;entryDx=0;entryDy=0;" parent="1" source="xde6bj1MVYbyTkNECEby-112" target="106" edge="1">
                    <mxGeometry width="50" height="50" relative="1" as="geometry">
                        <mxPoint x="1320" y="780" as="sourcePoint"/>
                        <mxPoint x="1400" y="655" as="targetPoint"/>
                        <Array as="points">
                            <mxPoint x="1340" y="665"/>
                            <mxPoint x="1380" y="665"/>
                            <mxPoint x="1380" y="658"/>
                            <mxPoint x="1402" y="658"/>
                        </Array>
                    </mxGeometry>
                </mxCell>
                <mxCell id="xde6bj1MVYbyTkNECEby-154" value="" style="endArrow=none;fontFamily=Helvetica;fontSize=10;fontColor=default;entryX=0;entryY=0.5;entryDx=0;entryDy=0;exitX=1;exitY=0.5;exitDx=0;exitDy=0;rounded=0;html=1;edgeStyle=orthogonalEdgeStyle;strokeColor=default;strokeWidth=2;fontStyle=1" parent="1" source="xde6bj1MVYbyTkNECEby-119" target="xde6bj1MVYbyTkNECEby-130" edge="1">
                    <mxGeometry width="50" height="50" relative="1" as="geometry">
                        <mxPoint x="1690" y="655" as="sourcePoint"/>
                        <mxPoint x="1740" y="605" as="targetPoint"/>
                    </mxGeometry>
                </mxCell>
                <mxCell id="xde6bj1MVYbyTkNECEby-155" value="" style="endArrow=none;fontFamily=Helvetica;fontSize=10;fontColor=default;entryX=0;entryY=0.5;entryDx=0;entryDy=0;exitX=1;exitY=0.5;exitDx=0;exitDy=0;rounded=0;html=1;edgeStyle=orthogonalEdgeStyle;strokeColor=default;strokeWidth=2;fontStyle=1" parent="1" source="xde6bj1MVYbyTkNECEby-119" target="xde6bj1MVYbyTkNECEby-139" edge="1">
                    <mxGeometry width="50" height="50" relative="1" as="geometry">
                        <mxPoint x="1670" y="745" as="sourcePoint"/>
                        <mxPoint x="1720" y="695" as="targetPoint"/>
                    </mxGeometry>
                </mxCell>
                <mxCell id="xde6bj1MVYbyTkNECEby-156" value="" style="endArrow=none;fontFamily=Helvetica;fontSize=10;fontColor=default;entryX=0;entryY=0.5;entryDx=0;entryDy=0;exitX=1;exitY=0.5;exitDx=0;exitDy=0;rounded=0;html=1;edgeStyle=orthogonalEdgeStyle;strokeColor=default;strokeWidth=2;fontStyle=1" parent="1" source="xde6bj1MVYbyTkNECEby-119" target="xde6bj1MVYbyTkNECEby-128" edge="1">
                    <mxGeometry width="50" height="50" relative="1" as="geometry">
                        <mxPoint x="1630" y="735" as="sourcePoint"/>
                        <mxPoint x="1680" y="685" as="targetPoint"/>
                    </mxGeometry>
                </mxCell>
                <mxCell id="xde6bj1MVYbyTkNECEby-157" value="" style="endArrow=none;fontFamily=Helvetica;fontSize=10;fontColor=default;entryX=0;entryY=0.5;entryDx=0;entryDy=0;exitX=1;exitY=0.5;exitDx=0;exitDy=0;rounded=0;html=1;edgeStyle=orthogonalEdgeStyle;strokeColor=default;strokeWidth=2;fontStyle=1" parent="1" source="xde6bj1MVYbyTkNECEby-119" target="xde6bj1MVYbyTkNECEby-143" edge="1">
                    <mxGeometry width="50" height="50" relative="1" as="geometry">
                        <mxPoint x="1660" y="745" as="sourcePoint"/>
                        <mxPoint x="1710" y="695" as="targetPoint"/>
                    </mxGeometry>
                </mxCell>
                <mxCell id="xde6bj1MVYbyTkNECEby-158" value="" style="endArrow=none;fontFamily=Helvetica;fontSize=10;fontColor=default;entryX=0;entryY=0.5;entryDx=0;entryDy=0;exitX=1;exitY=0.5;exitDx=0;exitDy=0;rounded=0;html=1;edgeStyle=orthogonalEdgeStyle;strokeColor=default;strokeWidth=2;fontStyle=1" parent="1" source="xde6bj1MVYbyTkNECEby-117" target="xde6bj1MVYbyTkNECEby-129" edge="1">
                    <mxGeometry width="50" height="50" relative="1" as="geometry">
                        <mxPoint x="1660" y="785" as="sourcePoint"/>
                        <mxPoint x="1710" y="735" as="targetPoint"/>
                    </mxGeometry>
                </mxCell>
                <mxCell id="xde6bj1MVYbyTkNECEby-159" value="" style="endArrow=none;fontFamily=Helvetica;fontSize=10;fontColor=default;entryX=0;entryY=0.5;entryDx=0;entryDy=0;exitX=1;exitY=0.5;exitDx=0;exitDy=0;rounded=0;html=1;edgeStyle=orthogonalEdgeStyle;strokeColor=default;strokeWidth=2;fontStyle=1" parent="1" source="xde6bj1MVYbyTkNECEby-129" target="xde6bj1MVYbyTkNECEby-140" edge="1">
                    <mxGeometry width="50" height="50" relative="1" as="geometry">
                        <mxPoint x="1670" y="775" as="sourcePoint"/>
                        <mxPoint x="1720" y="725" as="targetPoint"/>
                    </mxGeometry>
                </mxCell>
                <mxCell id="xde6bj1MVYbyTkNECEby-160" value="" style="endArrow=none;fontFamily=Helvetica;fontSize=10;fontColor=default;entryX=0;entryY=0.5;entryDx=0;entryDy=0;exitX=1;exitY=0.5;exitDx=0;exitDy=0;rounded=0;html=1;edgeStyle=orthogonalEdgeStyle;strokeColor=default;strokeWidth=2;fontStyle=1" parent="1" source="xde6bj1MVYbyTkNECEby-129" target="xde6bj1MVYbyTkNECEby-141" edge="1">
                    <mxGeometry width="50" height="50" relative="1" as="geometry">
                        <mxPoint x="1690" y="775" as="sourcePoint"/>
                        <mxPoint x="1740" y="725" as="targetPoint"/>
                    </mxGeometry>
                </mxCell>
                <mxCell id="xde6bj1MVYbyTkNECEby-161" value="" style="endArrow=none;fontFamily=Helvetica;fontSize=10;fontColor=default;entryX=0;entryY=0.5;entryDx=0;entryDy=0;exitX=1;exitY=0.5;exitDx=0;exitDy=0;rounded=0;html=1;edgeStyle=orthogonalEdgeStyle;strokeColor=default;strokeWidth=2;fontStyle=1" parent="1" source="xde6bj1MVYbyTkNECEby-117" target="xde6bj1MVYbyTkNECEby-145" edge="1">
                    <mxGeometry width="50" height="50" relative="1" as="geometry">
                        <mxPoint x="1640" y="775" as="sourcePoint"/>
                        <mxPoint x="1690" y="725" as="targetPoint"/>
                    </mxGeometry>
                </mxCell>
                <mxCell id="xde6bj1MVYbyTkNECEby-162" value="" style="endArrow=none;fontFamily=Helvetica;fontSize=10;fontColor=default;entryX=0;entryY=0.5;entryDx=0;entryDy=0;exitX=1;exitY=0.5;exitDx=0;exitDy=0;rounded=0;html=1;edgeStyle=orthogonalEdgeStyle;strokeColor=default;strokeWidth=2;fontStyle=1" parent="1" source="xde6bj1MVYbyTkNECEby-145" target="xde6bj1MVYbyTkNECEby-146" edge="1">
                    <mxGeometry width="50" height="50" relative="1" as="geometry">
                        <mxPoint x="1760" y="805" as="sourcePoint"/>
                        <mxPoint x="1810" y="755" as="targetPoint"/>
                    </mxGeometry>
                </mxCell>
                <mxCell id="xde6bj1MVYbyTkNECEby-163" value="" style="endArrow=none;fontFamily=Helvetica;fontSize=10;fontColor=default;entryX=0;entryY=0.5;entryDx=0;entryDy=0;exitX=1;exitY=0.5;exitDx=0;exitDy=0;rounded=0;html=1;edgeStyle=orthogonalEdgeStyle;strokeColor=default;strokeWidth=2;fontStyle=1" parent="1" source="xde6bj1MVYbyTkNECEby-145" target="xde6bj1MVYbyTkNECEby-147" edge="1">
                    <mxGeometry width="50" height="50" relative="1" as="geometry">
                        <mxPoint x="1700" y="785" as="sourcePoint"/>
                        <mxPoint x="1750" y="735" as="targetPoint"/>
                    </mxGeometry>
                </mxCell>
                <mxCell id="xde6bj1MVYbyTkNECEby-164" value="" style="endArrow=none;fontFamily=Helvetica;fontSize=10;fontColor=default;entryX=0;entryY=0.5;entryDx=0;entryDy=0;exitX=1;exitY=0.5;exitDx=0;exitDy=0;rounded=0;html=1;edgeStyle=orthogonalEdgeStyle;strokeColor=default;strokeWidth=2;fontStyle=1" parent="1" source="xde6bj1MVYbyTkNECEby-118" target="xde6bj1MVYbyTkNECEby-122" edge="1">
                    <mxGeometry width="50" height="50" relative="1" as="geometry">
                        <mxPoint x="1650" y="430" as="sourcePoint"/>
                        <mxPoint x="1700" y="380" as="targetPoint"/>
                    </mxGeometry>
                </mxCell>
                <mxCell id="xde6bj1MVYbyTkNECEby-165" value="" style="endArrow=none;fontFamily=Helvetica;fontSize=10;fontColor=default;entryX=0;entryY=0.5;entryDx=0;entryDy=0;exitX=1;exitY=0.5;exitDx=0;exitDy=0;rounded=0;html=1;edgeStyle=orthogonalEdgeStyle;strokeColor=default;strokeWidth=2;fontStyle=1" parent="1" source="xde6bj1MVYbyTkNECEby-118" target="xde6bj1MVYbyTkNECEby-127" edge="1">
                    <mxGeometry width="50" height="50" relative="1" as="geometry">
                        <mxPoint x="1650" y="470" as="sourcePoint"/>
                        <mxPoint x="1700" y="420" as="targetPoint"/>
                    </mxGeometry>
                </mxCell>
                <mxCell id="xde6bj1MVYbyTkNECEby-167" value="Accumulated Local &lt;br style=&quot;font-size: 10px;&quot;&gt;Effects" style="ellipse;whiteSpace=wrap;html=1;fontSize=10;labelBackgroundColor=none;labelBorderColor=none;fontStyle=1;fillColor=#B3B3B3;strokeColor=default;strokeWidth=2;" parent="1" vertex="1">
                    <mxGeometry x="1960" y="490" width="140" height="35" as="geometry"/>
                </mxCell>
                <mxCell id="xde6bj1MVYbyTkNECEby-168" value="Partial Dependence Plot" style="ellipse;whiteSpace=wrap;html=1;fontSize=10;labelBackgroundColor=none;labelBorderColor=none;strokeColor=default;strokeWidth=2;fillColor=none;fontStyle=1" parent="1" vertex="1">
                    <mxGeometry x="1960" y="448" width="140" height="35" as="geometry"/>
                </mxCell>
                <mxCell id="xde6bj1MVYbyTkNECEby-169" value="Anchors" style="ellipse;whiteSpace=wrap;html=1;fontSize=10;labelBackgroundColor=none;labelBorderColor=none;fontStyle=1;fillColor=#B3B3B3;strokeColor=default;strokeWidth=2;" parent="1" vertex="1">
                    <mxGeometry x="1960" y="368" width="140" height="35" as="geometry"/>
                </mxCell>
                <mxCell id="xde6bj1MVYbyTkNECEby-170" value="LIME" style="ellipse;whiteSpace=wrap;html=1;fontSize=10;strokeColor=default;strokeWidth=2;fillColor=none;fontStyle=1" parent="1" vertex="1">
                    <mxGeometry x="1960" y="408" width="140" height="35" as="geometry"/>
                </mxCell>
                <mxCell id="xde6bj1MVYbyTkNECEby-128" value="Accumulated Local &lt;br style=&quot;font-size: 10px;&quot;&gt;Effects" style="ellipse;whiteSpace=wrap;html=1;fontSize=10;fontStyle=1;fillColor=#B3B3B3;strokeColor=default;strokeWidth=2;" parent="1" vertex="1">
                    <mxGeometry x="1770" y="560" width="140" height="35" as="geometry"/>
                </mxCell>
                <mxCell id="xde6bj1MVYbyTkNECEby-130" value="Partial Dependence Plot" style="ellipse;whiteSpace=wrap;html=1;fontSize=10;strokeColor=default;strokeWidth=2;fillColor=none;fontStyle=1" parent="1" vertex="1">
                    <mxGeometry x="1770" y="470" width="140" height="35" as="geometry"/>
                </mxCell>
                <mxCell id="xde6bj1MVYbyTkNECEby-139" value="Individual Conditional &lt;br style=&quot;font-size: 10px;&quot;&gt;Expectation" style="ellipse;whiteSpace=wrap;html=1;fontSize=10;strokeColor=default;strokeWidth=2;fillColor=none;fontStyle=1" parent="1" vertex="1">
                    <mxGeometry x="1770" y="510" width="140" height="35" as="geometry"/>
                </mxCell>
                <mxCell id="xde6bj1MVYbyTkNECEby-143" value="Saliency Map" style="ellipse;whiteSpace=wrap;html=1;fontSize=10;strokeColor=default;strokeWidth=2;fillColor=none;fontStyle=1" parent="1" vertex="1">
                    <mxGeometry x="1770" y="600.99" width="140" height="35" as="geometry"/>
                </mxCell>
                <mxCell id="86" value="&lt;span style=&quot;font-size: 10px;&quot;&gt;Shapley Value&lt;/span&gt;" style="ellipse;whiteSpace=wrap;html=1;fontSize=10;labelBackgroundColor=none;labelBorderColor=none;fontStyle=1;fillColor=#B3B3B3;strokeColor=default;strokeWidth=2;" parent="1" vertex="1">
                    <mxGeometry x="1961.3400000000001" y="280" width="140" height="35" as="geometry"/>
                </mxCell>
                <mxCell id="90" value="" style="rounded=0;orthogonalLoop=1;jettySize=auto;exitX=1;exitY=0.5;exitDx=0;exitDy=0;entryX=0;entryY=0.5;entryDx=0;entryDy=0;endArrow=none;endFill=0;fontSize=10;html=1;edgeStyle=orthogonalEdgeStyle;strokeColor=default;strokeWidth=2;fontStyle=1" parent="1" target="86" edge="1">
                    <mxGeometry relative="1" as="geometry">
                        <mxPoint x="1910.1572" y="313.99" as="sourcePoint"/>
                        <mxPoint x="1959.9999999999955" y="331.98210000000006" as="targetPoint"/>
                        <Array as="points">
                            <mxPoint x="1935" y="314"/>
                            <mxPoint x="1935" y="295"/>
                        </Array>
                    </mxGeometry>
                </mxCell>
                <mxCell id="98" value="" style="endArrow=none;fontFamily=Helvetica;fontSize=10;fontColor=default;rounded=0;html=1;edgeStyle=orthogonalEdgeStyle;entryX=0;entryY=0.5;entryDx=0;entryDy=0;exitX=1;exitY=0.5;exitDx=0;exitDy=0;strokeColor=default;strokeWidth=2;fontStyle=1" edge="1" parent="1" source="xde6bj1MVYbyTkNECEby-112" target="107">
                    <mxGeometry width="50" height="50" relative="1" as="geometry">
                        <mxPoint x="1360" y="670" as="sourcePoint"/>
                        <mxPoint x="1401.65" y="705.98" as="targetPoint"/>
                        <Array as="points">
                            <mxPoint x="1340" y="665"/>
                            <mxPoint x="1380" y="665"/>
                            <mxPoint x="1380" y="708"/>
                            <mxPoint x="1402" y="708"/>
                        </Array>
                    </mxGeometry>
                </mxCell>
                <mxCell id="99" value="" style="endArrow=none;fontFamily=Helvetica;fontSize=10;fontColor=default;rounded=0;html=1;edgeStyle=orthogonalEdgeStyle;entryX=0;entryY=0.5;entryDx=0;entryDy=0;exitX=1;exitY=0.5;exitDx=0;exitDy=0;strokeColor=default;strokeWidth=2;fontStyle=1" edge="1" parent="1" source="xde6bj1MVYbyTkNECEby-112" target="108">
                    <mxGeometry width="50" height="50" relative="1" as="geometry">
                        <mxPoint x="1369.2123000000001" y="674.9605999999999" as="sourcePoint"/>
                        <mxPoint x="1400" y="755" as="targetPoint"/>
                        <Array as="points">
                            <mxPoint x="1340" y="665"/>
                            <mxPoint x="1380" y="665"/>
                            <mxPoint x="1380" y="758"/>
                            <mxPoint x="1402" y="758"/>
                        </Array>
                    </mxGeometry>
                </mxCell>
                <mxCell id="105" value="&lt;div style=&quot;font-size: 10px;&quot;&gt;Interpretable&lt;/div&gt;&lt;div style=&quot;font-size: 10px;&quot;&gt;Linear Regression&lt;/div&gt;" style="ellipse;whiteSpace=wrap;html=1;fontSize=10;strokeColor=default;strokeWidth=2;fillColor=none;fontStyle=1" vertex="1" parent="1">
                    <mxGeometry x="1401.65" y="590" width="140" height="35" as="geometry"/>
                </mxCell>
                <mxCell id="106" value="&lt;font face=&quot;helvetica&quot; style=&quot;font-size: 10px;&quot;&gt;Interpretable &lt;br style=&quot;font-size: 10px;&quot;&gt;Logistic Regression&lt;/font&gt;" style="ellipse;whiteSpace=wrap;html=1;fontSize=10;strokeColor=default;strokeWidth=2;fillColor=none;fontStyle=1" vertex="1" parent="1">
                    <mxGeometry x="1401.65" y="640" width="140" height="35" as="geometry"/>
                </mxCell>
                <mxCell id="107" value="&lt;font style=&quot;font-size: 10px;&quot;&gt;&lt;span style=&quot;font-family: helvetica; font-size: 10px;&quot;&gt;Interpretable&lt;/span&gt;&lt;br style=&quot;font-family: helvetica; font-size: 10px;&quot;&gt;&lt;/font&gt;&lt;span style=&quot;font-size: 10px&quot;&gt;Decision Tree&lt;/span&gt;" style="ellipse;whiteSpace=wrap;html=1;fontSize=10;strokeColor=default;strokeWidth=2;fillColor=none;fontStyle=1" vertex="1" parent="1">
                    <mxGeometry x="1401.6499999999999" y="690.08" width="140" height="35" as="geometry"/>
                </mxCell>
                <mxCell id="108" value="&lt;font style=&quot;font-size: 10px&quot;&gt;&lt;font face=&quot;helvetica&quot; style=&quot;font-size: 10px&quot;&gt;Interpretable&lt;/font&gt;&amp;nbsp;&lt;br&gt;&lt;/font&gt;&lt;span style=&quot;font-size: 10px&quot;&gt;K-Nearest Neighbors&lt;/span&gt;" style="ellipse;whiteSpace=wrap;html=1;fontSize=10;strokeColor=default;strokeWidth=2;fillColor=none;fontStyle=1" vertex="1" parent="1">
                    <mxGeometry x="1401.65" y="740" width="140" height="35" as="geometry"/>
                </mxCell>
            </root>
        </mxGraphModel>
    </diagram>
</mxfile>